<svg xmlns="http://www.w3.org/2000/svg" viewBox="0 0 352.37 108.77"><defs><style>.cls-1{fill:#002b36;}</style></defs><g id="Ebene_2" data-name="Ebene 2"><g id="Ebene_1-2" data-name="Ebene 1"><path class="cls-1" d="M147.42,92.81A34.23,34.23,0,0,1,134,80a35.65,35.65,0,0,1-4.85-18.5,35.36,35.36,0,0,1,4.9-18.5,34.64,34.64,0,0,1,13.45-12.85,39.41,39.41,0,0,1,19.15-4.65,39.94,39.94,0,0,1,15.7,3,32.08,32.08,0,0,1,12,8.7l-8.4,7.9a24.53,24.53,0,0,0-18.7-8.2A26.22,26.22,0,0,0,154.37,40a22.69,22.69,0,0,0-8.9,8.75,25.1,25.1,0,0,0-3.2,12.7,25.07,25.07,0,0,0,3.2,12.7,22.63,22.63,0,0,0,8.9,8.75,26.22,26.22,0,0,0,12.9,3.15,24.35,24.35,0,0,0,18.7-8.3l8.4,8a32,32,0,0,1-12.05,8.7,40.33,40.33,0,0,1-15.75,3A39.41,39.41,0,0,1,147.42,92.81Z"/><path class="cls-1" d="M221.27,89.31q-8.1-8.15-8.1-23.35V26.46h13v39q0,20.6,17.8,20.6t17.7-20.6v-39h12.8V66q0,15.21-8.05,23.35t-22.55,8.15Q229.36,97.46,221.27,89.31Z"/><path class="cls-1" d="M300.07,26.46h13v70h-13Z"/><path class="cls-1" d="M339.37,26.46h13v70h-13Z"/><path class="cls-1" d="M59,54.33a43.26,43.26,0,0,0,.17,4.4C60,69,64.65,79.48,74.16,89l9.89-9.89c-14.28-14.27-13.1-31.63-4.5-44a38.54,38.54,0,0,1,4.5-5.38l-9.89-9.89A53.66,53.66,0,0,0,69.54,25,49,49,0,0,0,59,54.33Z"/><path class="cls-1" d="M30.48,55.73a33.78,33.78,0,0,1-4.41,20.08c-.56,1-1.15,1.93-1.79,2.85l10,10q1.51-2,2.84-4a78.44,78.44,0,0,0,7.81,13.14,93.44,93.44,0,0,0,9.44,11l9.89-9.89A72.75,72.75,0,0,1,53.11,84.71a59.43,59.43,0,0,1-7.88-22.1A57.47,57.47,0,0,1,47,38.78,63.44,63.44,0,0,1,50.72,29,70,70,0,0,1,64.27,9.89L54.38,0c-1.65,1.65-3.23,3.37-4.74,5.14C48.91,6,48.2,6.88,47.5,7.77a83.53,83.53,0,0,0-6.13,8.93,79.49,79.49,0,0,0-6.55,13.87,61.21,61.21,0,0,0-5.15-5.86L19.78,34.6A36.18,36.18,0,0,1,30.19,53.68C30.31,54.36,30.41,55.05,30.48,55.73Z"/><path class="cls-1" d="M.15,54.53,14.08,68.46c3.72-7.17,3.47-16.31-4.19-24L0,54.38H0Z"/><path class="cls-1" d="M93.93,69.22l9.89-9.89h0l-.15-.16a6.71,6.71,0,0,1,.15-9.73l-9.89-9.89a23.13,23.13,0,0,0-4.18,5.7C86,52.42,86.28,61.56,93.93,69.22Z"/></g></g></svg>