<svg xmlns="http://www.w3.org/2000/svg" viewBox="0 0 476.66 499.35"><defs><style>.cls-1{fill:#fff;}</style></defs><g id="Ebene_2" data-name="Ebene 2"><g id="Ebene_1-2" data-name="Ebene 1"><path class="cls-1" d="M270.62,249.42a198.79,198.79,0,0,0,.8,20.22c4.22,47.1,25.37,95.25,69,138.92l45.4-45.4C320.32,297.62,325.75,218,365.22,160.92a179.88,179.88,0,0,1,20.64-24.72l-45.4-45.4A248.37,248.37,0,0,0,319.24,115C289.51,153.4,271.17,200.39,270.62,249.42Z"/><path class="cls-1" d="M139.94,255.88c3.33,31.9-4.43,64.29-20.26,92.17q-3.83,6.72-8.22,13.08l46,45.95q7-9,13-18.54a362.67,362.67,0,0,0,35.86,60.33,425.28,425.28,0,0,0,43.37,50.48L295.07,454a334.82,334.82,0,0,1-51.24-65.06,273,273,0,0,1-36.19-101.45c-5.18-36.47-1.95-74,8.18-109.4a292.38,292.38,0,0,1,17-44.9,313,313,0,0,1,40.68-63.91q10.17-12.45,21.55-23.83L249.67,0q-11.35,11.36-21.75,23.62c-3.37,3.95-6.65,8-9.84,12.05a383.72,383.72,0,0,0-28.14,41,364.57,364.57,0,0,0-30.08,63.65,274,274,0,0,0-23.66-26.87l-45.4,45.4c23.93,23.93,41.94,53.95,47.82,87.57C139.17,249.58,139.61,252.72,139.94,255.88Z"/><path class="cls-1" d="M.7,250.37l63.93,63.92c17.08-32.93,15.94-74.88-19.21-110L0,249.65l0,0Z"/><path class="cls-1" d="M431.25,317.78l45.4-45.4h0l-.7-.71c-14.32-15-10.48-33.48.7-44.66l-45.41-45.42A106.17,106.17,0,0,0,412,207.74C395,240.67,396.09,282.63,431.25,317.78Z"/></g></g></svg>